<svg version="1.1" xmlns="http://www.w3.org/2000/svg" width="32" height="32" viewBox="0 0 32 32">
  <title>product-llm-api</title>
  <path fill="#8d4aff" d="M16 2.667c-6.627 0-12 5.373-12 12 0 5.711 3.989 10.49 9.333 11.703v2.964c8.1 0 14.667-6.566 14.667-14.667 0-6.627-5.373-12-12-12zM13.959 9.739c0.647-0.268 1.341-0.406 2.041-0.406v10.667c-0.7 0-1.394-0.138-2.041-0.406s-1.235-0.661-1.73-1.156c-0.495-0.495-0.888-1.083-1.156-1.73s-0.406-1.341-0.406-2.041c0-0.7 0.138-1.394 0.406-2.041s0.661-1.235 1.156-1.73c0.495-0.495 1.083-0.888 1.73-1.156z"></path>
</svg>
