<svg width="24" height="16" viewBox="0 0 24 16" fill="none" xmlns="http://www.w3.org/2000/svg">
<path fill-rule="evenodd" clip-rule="evenodd" d="M24 5.55C24.0001 6.02527 23.6657 6.43495 23.2 6.53C22.5009 6.67196 21.9985 7.28664 21.9985 8C21.9985 8.71336 22.5009 9.32804 23.2 9.47C23.6657 9.56505 24.0001 9.97473 24 10.45V14.5C24 15.3284 23.3284 16 22.5 16H1.5C1.10218 16 0.720644 15.842 0.43934 15.5607C0.158035 15.2794 2.10777e-08 14.8978 2.10777e-08 14.5V10.45C-9.69384e-05 9.97473 0.334334 9.56505 0.8 9.47C1.4991 9.32804 2.0015 8.71336 2.0015 8C2.0015 7.28664 1.4991 6.67196 0.8 6.53C0.334334 6.43495 -9.69384e-05 6.02527 2.10777e-08 5.55V1.5C2.10777e-08 0.671573 0.671573 0 1.5 0H22.5C23.3284 0 24 0.671573 24 1.5V5.55ZM16.5 13.5C16.5 13.9142 16.8358 14.25 17.25 14.25C17.6642 14.25 18 13.9142 18 13.5C18 13.0858 17.6642 12.75 17.25 12.75C16.8358 12.75 16.5 13.0858 16.5 13.5ZM17.25 10.583C16.8358 10.583 16.5 10.2472 16.5 9.83301C16.5 9.41879 16.8358 9.08301 17.25 9.08301C17.6642 9.08301 18 9.41879 18 9.83301C18 10.2472 17.6642 10.583 17.25 10.583ZM16.5 6.16699C16.5 6.58121 16.8358 6.91699 17.25 6.91699C17.6642 6.91699 18 6.58121 18 6.16699C18 5.75278 17.6642 5.41699 17.25 5.41699C16.8358 5.41699 16.5 5.75278 16.5 6.16699ZM17.25 3.25C16.8358 3.25 16.5 2.91421 16.5 2.5C16.5 2.08579 16.8358 1.75 17.25 1.75C17.6642 1.75 18 2.08579 18 2.5C18 2.91421 17.6642 3.25 17.25 3.25ZM10.861 8.655L12.21 7.565L12.214 7.564C12.3789 7.43087 12.4419 7.20828 12.3713 7.00848C12.3008 6.80868 12.1119 6.67506 11.9 6.675H10.456C10.3552 6.67524 10.2641 6.61491 10.225 6.522L9.46001 4.691C9.38205 4.50536 9.20035 4.3846 8.99901 4.3846C8.79767 4.3846 8.61597 4.50536 8.53801 4.691L7.76501 6.523C7.72604 6.61557 7.63545 6.67584 7.53501 6.676H6.09401C5.88211 6.67606 5.69326 6.80968 5.62269 7.00948C5.55212 7.20928 5.61515 7.43187 5.78001 7.565L7.12901 8.656C7.21296 8.72346 7.24403 8.83724 7.20601 8.938L6.55001 10.687C6.47295 10.893 6.53954 11.1251 6.71407 11.259C6.88859 11.3928 7.13007 11.3969 7.30901 11.269L8.85001 10.169C8.93671 10.1069 9.05332 10.1069 9.14001 10.169L10.682 11.269C10.8611 11.3964 11.1024 11.3919 11.2767 11.2579C11.4509 11.1239 11.5172 10.8918 11.44 10.686L10.784 8.937C10.746 8.83624 10.7771 8.72246 10.861 8.655Z" fill="#FF3E60"/>
</svg>
