<svg width="24" height="24" viewBox="0 0 24 24" fill="none" xmlns="http://www.w3.org/2000/svg">
<path opacity="0.289597" fill-rule="evenodd" clip-rule="evenodd" d="M9.11309 1.48702L20.847 5.0531C21.2946 5.18913 21.6 5.59758 21.6 6.06012V15.972C21.6 16.5539 21.1224 17.0256 20.5333 17.0256C20.4269 17.0256 20.3212 17.0099 20.2196 16.979L8.48568 13.4129C8.03809 13.2769 7.73267 12.8684 7.73267 12.4059V2.49404C7.73267 1.91215 8.21025 1.44043 8.79938 1.44043C8.90572 1.44043 9.01146 1.45613 9.11309 1.48702Z" fill="#0088B2"/>
<path opacity="0.6" fill-rule="evenodd" clip-rule="evenodd" d="M6.44872 3.17257L18.1826 6.73865C18.6302 6.87468 18.9356 7.28313 18.9356 7.74567V17.6575C18.9356 18.2394 18.458 18.7111 17.8689 18.7111C17.7626 18.7111 17.6568 18.6954 17.5552 18.6645L5.82131 15.0985C5.37372 14.9624 5.0683 14.554 5.0683 14.0914V4.17959C5.0683 3.5977 5.54588 3.12598 6.13502 3.12598C6.24135 3.12598 6.34709 3.14168 6.44872 3.17257Z" fill="#0088B2"/>
<path fill-rule="evenodd" clip-rule="evenodd" d="M3.78045 5.27999L15.5143 8.84607C15.9619 8.9821 16.2673 9.39055 16.2673 9.85309V19.7687C16.2673 20.3506 15.7898 20.8223 15.2006 20.8223C15.0952 20.8223 14.9903 20.8068 14.8895 20.7765L11.7338 19.8259V22.5134C11.7338 22.8044 11.495 23.0402 11.2004 23.0402C11.0292 23.0402 10.8685 22.9591 10.7682 22.822L7.83596 18.8149C7.76946 18.7241 7.67535 18.6565 7.56731 18.6221L3.13949 17.2125C2.69876 17.0721 2.40002 16.667 2.40002 16.2096V6.28701C2.40002 5.70512 2.87761 5.2334 3.46674 5.2334C3.57308 5.2334 3.67881 5.2491 3.78045 5.27999Z" fill="#0088B2"/>
<path d="M5.46265 10.985C5.05176 10.1772 5.80794 9.26797 6.67936 9.52191L9.9438 10.4732C10.2949 10.5755 10.5687 10.8503 10.6692 11.2014C10.9028 12.0173 10.1332 12.7672 9.32176 12.5143L6.0758 11.5023C5.80982 11.4194 5.58879 11.2329 5.46265 10.985Z" fill="white"/>
<path d="M12.0417 16.3656C12.6501 15.9072 12.4924 14.9572 11.7689 14.722L8.53044 13.6695C8.23735 13.5742 7.91569 13.6281 7.66923 13.8138C7.06083 14.2722 7.21853 15.2223 7.94203 15.4574L11.1805 16.51C11.4736 16.6052 11.7953 16.5513 12.0417 16.3656Z" fill="white"/>
</svg>
