<?xml version="1.0" encoding="UTF-8"?>
<svg width="50px" height="50px" viewBox="0 0 50 50" version="1.1" xmlns="http://www.w3.org/2000/svg" xmlns:xlink="http://www.w3.org/1999/xlink">
    <!-- Generator: Sketch 60.1 (88133) - https://sketch.com -->
    <title>Logos/Workspace/Drive</title>
    <desc>Created with Sketch.</desc>
    <g id="Logos/Workspace/Drive" stroke="none" stroke-width="1" fill="none" fill-rule="evenodd">
        <g id="logo" transform="translate(3.000000, 3.000000)">
            <path d="M19.6652777,1.21374814 L23.2776274,2.72388229 C23.8305045,2.95501127 24.2579591,3.41180693 24.451929,3.97878966 L25.8881834,8.17702532 C26.1193966,8.85287189 26.6789903,9.36436395 27.3728417,9.5340651 L42.4025402,13.2100068 C43.3403285,13.4393697 44,14.2798265 44,15.2452561 L44,32.7821806 C44,33.9393487 43.06193,34.8774187 41.9047619,34.8774187 C41.6958986,34.8774187 41.4882092,34.846189 41.2885821,34.7847652 L18.240963,27.6931905 C17.3618186,27.4226845 16.7619048,26.6104256 16.7619048,25.6906059 L16.7619048,3.14686498 C16.7619048,1.98969693 17.6999748,1.05162688 18.8571429,1.05162688 C19.1345983,1.05162688 19.4092907,1.10673339 19.6652777,1.21374814 Z" id="Rectangle-Copy-32" fill="#A2BFFF" opacity="0.504231771"></path>
            <path d="M14.4271825,5.40422433 L18.0395321,6.91435848 C18.5924093,7.14548746 19.0198639,7.60228312 19.2138338,8.16926585 L20.6500882,12.3675015 C20.8813014,13.0433481 21.4408951,13.5548401 22.1347464,13.7245413 L37.164445,17.400483 C38.1022332,17.6298459 38.7619048,18.4703027 38.7619048,19.4357322 L38.7619048,36.9726568 C38.7619048,38.1298249 37.8238347,39.0678949 36.6666667,39.0678949 C36.4578034,39.0678949 36.250114,39.0366651 36.0504868,38.9752414 L13.0028678,31.8836667 C12.1237234,31.6131607 11.5238095,30.8009018 11.5238095,29.8810821 L11.5238095,7.33734117 C11.5238095,6.18017312 12.4618796,5.24210307 13.6190476,5.24210307 C13.896503,5.24210307 14.1711955,5.29720958 14.4271825,5.40422433 Z" id="Rectangle-Copy-12" fill="#A0BDFF" opacity="0.8"></path>
            <path d="M9.18908726,8.96612923 L12.8014369,10.4762634 C13.3543141,10.7073924 13.7817686,11.164188 13.9757386,11.7311707 L15.4119929,15.9294064 C15.6432062,16.605253 16.2027999,17.116745 16.8966512,17.2864462 L31.9263497,20.9623879 C32.864138,21.1917508 33.5238095,22.0322076 33.5238095,22.9976371 L33.5238095,40.5345617 C33.5238095,41.6917297 32.5857395,42.6297998 31.4285714,42.6297998 C31.2197081,42.6297998 31.0120187,42.59857 30.8123916,42.5371463 L7.76477253,35.4455716 C6.88562816,35.1750656 6.28571429,34.3628067 6.28571429,33.442987 L6.28571429,10.8992461 C6.28571429,9.74207801 7.22378433,8.80400797 8.38095238,8.80400797 C8.6584078,8.80400797 8.93310025,8.85911447 9.18908726,8.96612923 Z" id="Rectangle" fill="#1A47FF"></path>
            <path d="M3.87511678,18.2573738 L27.1544269,24.7238488 C27.8572076,24.9190656 28.4078919,25.4657157 28.6082709,26.1670421 L32.993211,41.5143336 C33.1521602,42.070656 32.8300256,42.6504982 32.2737032,42.8094475 C32.0786778,42.865169 31.8716704,42.8630782 31.6778102,42.8034289 L7.29416302,35.3007686 C6.65980983,35.105583 6.15544723,34.6213867 5.93455359,33.9955214 L1.33854989,20.9735106 C0.953421096,19.8823123 1.52580351,18.6855128 2.61700179,18.300384 C3.02205064,18.1574256 3.46125059,18.142411 3.87511678,18.2573738 Z" id="Rectangle-Copy-37" fill="#5287FF"></path>
        </g>
    </g>
</svg>