<svg width="40" height="40" viewBox="0 0 40 40" fill="none" xmlns="http://www.w3.org/2000/svg">
    <path opacity="0.5" fill-rule="evenodd" clip-rule="evenodd" d="M12.5332 5.02794C12.5332 3.7989 13.7485 2.92053 14.9488 3.28198L35.4823 9.4648C36.2655 9.70064 36.8 10.4088 36.8 11.2108V28.3958C36.8 29.6248 35.5847 30.5032 34.3843 30.1418L13.8509 23.9589C13.0677 23.7231 12.5332 23.0149 12.5332 22.213V5.02794Z" fill="#FF9ABF"/>
    <path opacity="0.8" fill-rule="evenodd" clip-rule="evenodd" d="M7.8667 7.95067C7.8667 6.72163 9.08197 5.84326 10.2823 6.20471L30.8158 12.3875C31.599 12.6234 32.1335 13.3315 32.1335 14.1335V31.3185C32.1335 32.5476 30.9182 33.4259 29.7178 33.0645L9.18441 26.8817C8.40117 26.6458 7.8667 25.9376 7.8667 25.1357V7.95067Z" fill="#F789B2"/>
    <path fill-rule="evenodd" clip-rule="evenodd" d="M3.2002 11.6042C3.2002 10.3752 4.41546 9.49683 5.61583 9.85827L26.1492 16.0411C26.9325 16.2769 27.467 16.9851 27.467 17.7871V34.9721C27.467 36.2011 26.2517 37.0795 25.0513 36.718L4.51791 30.5352C3.73467 30.2994 3.2002 29.5912 3.2002 28.7893V11.6042Z" fill="#FF5B97"/>
    <mask id="mask0_2981_116492" style="mask-type:luminance" maskUnits="userSpaceOnUse" x="3" y="9" width="25" height="28">
        <path fill-rule="evenodd" clip-rule="evenodd" d="M3.2002 11.6042C3.2002 10.3752 4.41546 9.49683 5.61583 9.85827L26.1492 16.0411C26.9325 16.2769 27.467 16.9851 27.467 17.7871V34.9721C27.467 36.2011 26.2517 37.0795 25.0513 36.718L4.51791 30.5352C3.73467 30.2994 3.2002 29.5912 3.2002 28.7893V11.6042Z" fill="white"/>
    </mask>
    <g mask="url(#mask0_2981_116492)">
        <g style="mix-blend-mode:multiply">
            <path fill-rule="evenodd" clip-rule="evenodd" d="M3.2002 8.50513L27.467 15.8121L15.2655 26.45C14.3546 27.2442 12.9227 26.9838 12.3642 25.9223L3.2002 8.50513Z" fill="#F2357A"/>
        </g>
    </g>
</svg>
