<?xml version="1.0" encoding="UTF-8"?>
<svg width="50px" height="50px" viewBox="0 0 50 50" version="1.1" xmlns="http://www.w3.org/2000/svg" xmlns:xlink="http://www.w3.org/1999/xlink">
    <!-- Generator: Sketch 63.1 (92452) - https://sketch.com -->
    <title>Logo-Meet</title>
    <desc>Created with Sketch.</desc>
    <g id="Logo-Meet" stroke="none" stroke-width="1" fill="none" fill-rule="evenodd">
        <path d="M19.8786681,4.81473809 L42.3863604,11.740182 C43.2449094,12.0043509 43.8307694,12.7975814 43.8307694,13.6958529 L43.8307694,32.9449757 C43.8307694,34.0750353 42.9146751,34.9911295 41.7846155,34.9911295 C41.5806452,34.9911295 41.3778212,34.9606314 41.1828706,34.9006466 L18.6751783,27.9752031 C17.8166293,27.7110342 17.2307694,26.9178037 17.2307694,26.0195322 L17.2307694,6.77040898 C17.2307694,5.64034941 18.1468636,4.72425513 19.2769232,4.72425513 C19.4808935,4.72425513 19.6837175,4.75475329 19.8786681,4.81473809 Z" id="Rectangle-Copy-15" fill="#3DBD86" opacity="0.289597284"></path>
        <path d="M14.7632834,8.0885842 L37.2709757,15.0140281 C38.1295247,15.278197 38.7153847,16.0714275 38.7153847,16.969699 L38.7153847,36.2188218 C38.7153847,37.3488814 37.7992904,38.2649756 36.6692308,38.2649756 C36.4652605,38.2649756 36.2624365,38.2344775 36.067486,38.1744927 L13.5597937,31.2490492 C12.7012446,30.9848803 12.1153847,30.1916498 12.1153847,29.2933783 L12.1153847,10.0442551 C12.1153847,8.91419553 13.031479,7.99810124 14.1615385,7.99810124 C14.3655089,7.99810124 14.5683328,8.0285994 14.7632834,8.0885842 Z" id="Rectangle-Copy-10" fill="#83D5B1" opacity="0.80031622"></path>
        <path d="M9.64789875,12.1808919 L32.1555911,19.1063358 C33.0141401,19.3705047 33.6,20.1637352 33.6,21.0620067 L33.6,40.3183651 C33.6,41.4484247 32.6839057,42.3645189 31.5538462,42.3645189 C31.3515906,42.3645189 31.1504526,42.3345314 30.9569929,42.2755344 L24.9038462,40.4295826 L24.9038462,40.4295826 L24.9038462,45.6487701 C24.9038462,46.2137999 24.445799,46.671847 23.8807692,46.671847 C23.5523855,46.671847 23.2439605,46.5142162 23.0515987,46.2480719 L17.4270911,38.4662231 C17.2995445,38.2897546 17.1190235,38.1585809 16.9117864,38.0917823 L8.41842235,35.3541225 C7.5730374,35.0816302 7,34.2948533 7,33.4066372 L7,14.1365628 C7,13.0065032 7.91609428,12.0904089 9.04615385,12.0904089 C9.2501242,12.0904089 9.45294817,12.1209071 9.64789875,12.1808919 Z" id="Rectangle" fill="#3DBD86"></path>
        <path d="M22.1096871,22.2637659 C22.5914492,22.4032769 22.9819946,22.9019474 22.9819946,23.3775776 L22.9819946,32.850829 C22.9819946,33.3264593 22.5914492,33.5989377 22.1096871,33.4594267 L12.7184614,30.7398699 C12.2366992,30.6003589 11.8461538,30.1016884 11.8461538,29.6260582 L11.8461538,20.1528068 C11.8461538,19.6771766 12.2366992,19.4046981 12.7184614,19.5442091 L22.1096871,22.2637659 Z M27.166933,24.3644984 C27.2821184,24.3309726 27.4189589,24.3777706 27.5284767,24.4881425 C27.6380245,24.5984611 27.7046181,24.7566027 27.7044457,24.9059673 L27.7044457,34.1280667 C27.7044457,34.2773686 27.6377454,34.3967041 27.5282327,34.4434255 C27.41872,34.490147 27.2819984,34.4576261 27.166933,34.357376 L22.7125967,30.7350057 C22.5870064,30.6256312 22.5076598,30.4536695 22.5076598,30.290711 L22.5076598,25.9846876 C22.5074206,25.8213393 22.586767,25.6949099 22.7125967,25.6582041 L27.166933,24.3644984 Z" id="Combined-Shape" fill="#FFFFFF" fill-rule="nonzero"></path>
    </g>
</svg>