<svg width="24" height="23" viewBox="0 0 24 23" fill="none" xmlns="http://www.w3.org/2000/svg">
<path d="M23.8178 0.915963C23.675 0.796721 23.4777 0.766672 23.3058 0.837969L0.307525 10.3373C0.119479 10.4157 -0.00216845 10.6004 2.92908e-05 10.8041C0.00222703 11.0078 0.127831 11.1899 0.317524 11.2642L6.64906 13.723C6.80461 13.7837 6.98017 13.7627 7.11703 13.667L15.5164 7.69347C15.7297 7.53923 16.0261 7.57683 16.1942 7.77945C16.3622 7.98206 16.3444 8.28028 16.1534 8.46141L9.15388 15.2059C9.05611 15.3002 9.00088 15.4301 9.00089 15.5659V22.2984C9.00154 22.5237 9.15277 22.7207 9.37022 22.7795C9.58767 22.8384 9.81763 22.7446 9.93182 22.5504L13.0986 17.1258C13.1673 17.0088 13.3166 16.9676 13.4356 17.0328L19.2611 20.2325C19.3995 20.3088 19.5657 20.3152 19.7094 20.2498C19.8532 20.1844 19.9576 20.0549 19.9911 19.9006L23.9908 1.40193C24.0258 1.22054 23.9595 1.03444 23.8178 0.915963Z" fill="#488FC4"/>
</svg>
