<svg viewBox="0 0 32 32" xmlns="http://www.w3.org/2000/svg"><g fill="none" fill-rule="evenodd"><path d="M0 0h32v32H0z"/><path d="M15.8 8.3a3.9 3.9 0 00-3.8 4.8c.1.4-.3.8-.8.6-.6-.3-1.4-.4-2.2-.4h-.2a5.7 5.7 0 106 6c0-3.5 2-6.5 4.9-7.8a4 4 0 00-3.9-3.2z"/><path d="M23.4 10.6h-.6A7.1 7.1 0 009 10 9 9 0 109 28h14.3a8.6 8.6 0 000-17.3zm-8.7 8.6c-.2 3.3-3 5.8-6.4 5.4a5.7 5.7 0 01.5-11.3H9c.8 0 1.6.1 2.2.4.5.2 1-.2.8-.6v-.9c0-.5 0-1 .3-1.6a3.9 3.9 0 017.3.8 8.7 8.7 0 00-4.9 7.8zm13 2.3c0 .1 0 .3-.2.3l-4 2.3H23l-4-2.3a.4.4 0 01-.1-.3V17 17v-.1-.1h.1l4-2.3h.5l4 2.2v.1l.1.2v4.6z" fill="#275F86" fill-rule="nonzero"/><path fill="#275F86" fill-rule="nonzero" d="M19.8 17.8v3.4L23 23v-3.5l-2-1zM26.5 17l-3.2-1.8-3 1.8 3 1.8 1.7-1zM23.8 23l3-1.8v-3.4l-3 1.7z"/></g></svg>
