<?xml version="1.0" encoding="UTF-8"?>
<svg width="24px" height="24px" viewBox="0 0 24 24" version="1.1" xmlns="http://www.w3.org/2000/svg" xmlns:xlink="http://www.w3.org/1999/xlink">
    <title>radio</title>
    <g id="radio" stroke="none" stroke-width="1" fill="none" fill-rule="evenodd">
        <path d="M23.7781744,13.5123007 C23.9162456,13.5123007 24.0281744,13.6242296 24.0281744,13.7623007 L24.0281744,13.7623007 L24.0281744,22.5123007 C24.0281744,23.3407279 23.3566015,24.0123007 22.5281744,24.0123007 L22.5281744,24.0123007 L1.52817437,24.0123007 C0.699747244,24.0123007 0.0281743688,23.3407279 0.0281743688,22.5123007 L0.0281743688,22.5123007 L0.0281743688,13.7623007 C0.0281743688,13.6242296 0.140103181,13.5123007 0.278174369,13.5123007 L0.278174369,13.5123007 Z M19.0281744,16.0123007 C17.3713201,16.0123007 16.0281744,17.3554465 16.0281744,19.0123007 C16.0281744,20.669155 17.3713201,22.0123007 19.0281744,22.0123007 C20.6850286,22.0123007 22.0281744,20.669155 22.0281744,19.0123007 C22.0281744,17.3554465 20.6850286,16.0123007 19.0281744,16.0123007 Z M5.02817437,16.0123007 C3.37132012,16.0123007 2.02817437,17.3554465 2.02817437,19.0123007 C2.02817437,20.669155 3.37132012,22.0123007 5.02817437,22.0123007 C6.68502862,22.0123007 8.02817437,20.669155 8.02817437,19.0123007 C8.02817437,17.3554465 6.68502862,16.0123007 5.02817437,16.0123007 Z M0.414732433,0.189177407 C0.710355959,-0.0242144062 1.0986885,-0.0598030562 1.42817437,0.0963007442 L1.42817437,0.0963007442 L21.6911744,8.99130074 C21.7227064,9.00511082 21.7567507,9.01226013 21.7911744,9.01230074 L21.7911744,9.01230074 L22.5281744,9.01230074 C23.3566015,9.01230074 24.0281744,9.68387362 24.0281744,10.5123007 L24.0281744,10.5123007 L24.0281744,11.7623007 C24.0281744,11.9003719 23.9162456,12.0123007 23.7781744,12.0123007 L23.7781744,12.0123007 L0.278174369,12.0123007 C0.140103181,12.0123007 0.0281743688,11.9003719 0.0281743688,11.7623007 L0.0281743688,11.7623007 L0.0281743688,10.5123007 C0.0281743688,9.68387362 0.699747244,9.01230074 1.52817437,9.01230074 L1.52817437,9.01230074 L2.27817437,9.01230074 C2.41624556,9.01230074 2.52817437,8.90037193 2.52817437,8.76230074 L2.52817437,8.76230074 L2.52817437,8.01230074 C2.52817437,7.46001599 2.97588962,7.01230074 3.52817437,7.01230074 C4.08045912,7.01230074 4.52817437,7.46001599 4.52817437,8.01230074 L4.52817437,8.01230074 L4.52817437,8.76230074 C4.52817437,8.90037193 4.64010318,9.01230074 4.77817437,9.01230074 L4.77817437,9.01230074 L6.27817437,9.01230074 C6.41624556,9.01230074 6.52817437,8.90037193 6.52817437,8.76230074 L6.52817437,8.76230074 L6.52817437,8.01230074 C6.52817437,7.46001599 6.97588962,7.01230074 7.52817437,7.01230074 C8.08045912,7.01230074 8.52817437,7.46001599 8.52817437,8.01230074 L8.52817437,8.01230074 L8.52817437,8.76230074 C8.52817437,8.90037193 8.64010318,9.01230074 8.77817437,9.01230074 L8.77817437,9.01230074 L15.5721744,9.01230074 C15.6904437,9.01216158 15.7924342,8.92916485 15.816604,8.81339149 C15.8407738,8.69761812 15.7805092,8.58074767 15.6721744,8.53330074 L15.6721744,8.53330074 L0.628174369,1.92830074 C0.289722648,1.79272874 0.0518779448,1.48370025 0.00746461042,1.12182072 C-0.036948724,0.759941196 0.119108907,0.402569221 0.414732433,0.189177407 Z" id="Combined-Shape" fill="#FFAA4C" fill-rule="nonzero"></path>
    </g>
</svg>
