<svg fill="none" height="32" viewBox="0 0 32 32" width="32" xmlns="http://www.w3.org/2000/svg">
  <path clip-rule="evenodd" d="M24.9608 10.4055C25.1245 10.4553 25.2064 10.4801 25.3701 10.5298C26.6797 10.9275 27.9075 11.6301 28.8897 12.5878C30.7722 14.3135 32 16.8297 32 19.2203C32 22.9298 29.0534 25.0026 25.3701 23.8842L14.3203 20.5287C10.5551 19.3854 7.44482 15.3908 7.44482 11.5164C7.44482 7.64202 10.5551 5.53645 14.3203 6.67978C15.0569 4.67775 17.1032 3.73288 19.5587 4.47853C22.1779 5.2739 24.3879 7.75854 24.9608 10.4055Z" fill="#C5E0FD"
        fill-rule="evenodd"
        opacity="0.5"/>
  <path clip-rule="evenodd" d="M21.5756 12.3947C21.7393 12.4444 21.8211 12.4692 21.9848 12.519C23.2945 12.9166 24.5222 13.6192 25.5044 14.5769C27.387 16.3027 28.6147 18.8188 28.6147 21.2094C28.6147 24.9189 25.6681 26.9918 21.9848 25.8733L10.935 22.5179C7.16989 21.3745 4.05957 17.38 4.05957 13.5056C4.05957 9.63116 7.16989 7.52558 10.935 8.66892C11.6717 6.66689 13.7179 5.72202 16.1735 6.46767C18.7927 7.26303 21.0026 9.74767 21.5756 12.3947Z" fill="#C5E0FD"
        fill-rule="evenodd"
        opacity="0.8"/>
  <path clip-rule="evenodd" d="M17.516 15.7082C17.6797 15.7579 17.7616 15.7827 17.9253 15.8324C19.2349 16.2301 20.4626 16.9327 21.4448 17.8904C23.3274 19.6162 24.5552 22.1323 24.5552 24.5229C24.5552 28.2324 21.6085 30.3053 17.9253 29.1868L6.87545 25.8313C3.11032 24.688 0 20.6934 0 16.819C0 12.9446 3.11032 10.8391 6.87545 11.9824C7.6121 9.98037 9.65837 9.03549 12.1139 9.78115C14.7331 10.5765 16.9431 13.0611 17.516 15.7082Z"
        fill="#386DA7"
        fill-rule="evenodd"/>
  <path clip-rule="evenodd" d="M11.1183 16.1958C12.5661 16.7045 13.8345 18.0681 14.3261 19.644C14.3393 19.6865 14.3766 19.7215 14.4152 19.7277L14.971 19.8125C15.033 19.8234 15.0944 19.8706 15.1306 19.9351C15.1661 20.0005 15.1687 20.072 15.1375 20.1194L14.256 21.4617C14.2306 21.5002 14.186 21.5178 14.1354 21.5093C14.0847 21.5009 14.0337 21.4672 13.9974 21.4184L12.7569 19.7467C12.7126 19.6872 12.6969 19.6143 12.7164 19.5584C12.7358 19.5026 12.787 19.4734 12.8487 19.483L13.413 19.5698C13.4386 19.5738 13.4609 19.5646 13.4733 19.5448C13.4857 19.525 13.4868 19.497 13.4762 19.4691C12.9337 18.018 11.5754 16.9205 10.2794 16.8861C8.98338 16.8516 8.13827 17.8905 8.29038 19.3312C8.44248 20.7718 9.54619 22.1823 10.888 22.6508C11.0349 22.699 11.1693 22.8251 11.2405 22.9814C11.3117 23.1378 11.3089 23.3007 11.2331 23.4088C11.1573 23.5168 11.0201 23.5537 10.8732 23.5054L10.8577 23.5006C9.58933 23.0671 8.43896 21.9635 7.84307 20.6086C7.24717 19.2538 7.29707 17.8552 7.97383 16.9435C8.65059 16.0318 9.8505 15.7468 11.1183 16.1965V16.1958Z"
        fill="white"
        fill-rule="evenodd"/>
</svg>
