<?xml version="1.0" encoding="UTF-8"?>
<svg width="24px" height="24px" viewBox="0 0 24 24" version="1.1" xmlns="http://www.w3.org/2000/svg" xmlns:xlink="http://www.w3.org/1999/xlink">
    <title>tv</title>
    <g id="tv" stroke="none" stroke-width="1" fill="none" fill-rule="evenodd">
        <path d="M22.5,4.98771202 L15.018,4.98771202 C14.9167456,4.98789318 14.8253808,4.92698058 14.7866078,4.83344366 C14.7478349,4.73990674 14.7693116,4.63221912 14.841,4.56071202 L17.707,1.69471202 C18.0859722,1.30233313 18.0805524,0.678627244 17.6948186,0.292893445 C17.3090848,-0.0928403531 16.6853789,-0.0982601888 16.293,0.280712021 L12.677,3.89671202 C12.6300979,3.94373287 12.5664136,3.97015891 12.5,3.97015891 C12.4335864,3.97015891 12.3699021,3.94373287 12.323,3.89671202 L8.707,0.280712021 C8.31462111,-0.0982601888 7.69091522,-0.0928403531 7.30518142,0.292893445 C6.91944763,0.678627244 6.91402779,1.30233313 7.293,1.69471202 L10.159,4.56071202 C10.2306884,4.63221912 10.2521651,4.73990674 10.2133922,4.83344366 C10.1746192,4.92698058 10.0832544,4.98789318 9.982,4.98771202 L1.5,4.98771202 C0.671572875,4.98771202 0,5.6592849 0,6.48771202 L0,20.487712 C0,21.3161391 0.671572875,21.987712 1.5,21.987712 L2.189,21.987712 C2.25537119,21.987483 2.31908715,22.0137613 2.366,22.060712 L3.854,23.548712 C4.13587524,23.8287152 4.5166918,23.9864308 4.914,23.987712 L19.086,23.987712 C19.4833082,23.9864308 19.8641248,23.8287152 20.146,23.548712 L21.634,22.060712 C21.6809129,22.0137613 21.7446288,21.987483 21.811,21.987712 L22.5,21.987712 C23.3284271,21.987712 24,21.3161391 24,20.487712 L24,6.48771202 C24,5.6592849 23.3284271,4.98771202 22.5,4.98771202 Z M16,7.48771202 C16.5522847,7.48771202 17,7.93542727 17,8.48771202 L17,18.487712 C17,19.0399968 16.5522847,19.487712 16,19.487712 L3.5,19.487712 C2.94771525,19.487712 2.5,19.0399968 2.5,18.487712 L2.5,8.48771202 C2.5,7.93542727 2.94771525,7.48771202 3.5,7.48771202 L16,7.48771202 Z M18.75,17.737712 C18.75,17.3234985 19.0857864,16.987712 19.5,16.987712 L21.5,16.987712 C21.9142136,16.987712 22.25,17.3234985 22.25,17.737712 C22.25,18.1519256 21.9142136,18.487712 21.5,18.487712 L19.5,18.487712 C19.0857864,18.487712 18.75,18.1519256 18.75,17.737712 Z M21.5,15.487712 L19.5,15.487712 C19.0857864,15.487712 18.75,15.1519256 18.75,14.737712 C18.75,14.3234985 19.0857864,13.987712 19.5,13.987712 L21.5,13.987712 C21.9142136,13.987712 22.25,14.3234985 22.25,14.737712 C22.25,15.1519256 21.9142136,15.487712 21.5,15.487712 L21.5,15.487712 Z M19,9.48771202 C19,8.6592849 19.6715729,7.98771202 20.5,7.98771202 C21.3284271,7.98771202 22,8.6592849 22,9.48771202 C22,10.3161391 21.3284271,10.987712 20.5,10.987712 C19.6715729,10.987712 19,10.3161391 19,9.48771202 Z" id="Shape" fill="#FF8E62" fill-rule="nonzero"></path>
    </g>
</svg>
