<?xml version="1.0" encoding="UTF-8"?>
<svg width="24px" height="24px" viewBox="0 0 24 24" version="1.1" xmlns="http://www.w3.org/2000/svg" xmlns:xlink="http://www.w3.org/1999/xlink">
    <title>play</title>
    <g id="play" stroke="none" stroke-width="1" fill="none" fill-rule="evenodd">
        <g id="folder-media" transform="translate(0.000000, 1.000000)" fill="#00BBD6" fill-rule="nonzero">
            <path d="M21.5,4.25 C21.6380712,4.25 21.7499997,4.13807119 21.7499997,4 L21.7499997,3.25 C21.7499997,2.83578644 21.4142136,2.5 21,2.5 L8,2.5 L7.82,2.424 L6.478,1.035 C6.1479954,0.693081906 5.69319577,0.5 5.218,0.5 L2.286,0.5 C1.16177688,0.500551766 0.250551766,1.41177688 0.249999714,2.536 L0.249999714,15.25 C0.249734509,15.7142102 0.434023723,16.1594838 0.762269954,16.48773 C1.09051618,16.8159763 1.5357898,17.0002655 2,17 L2.24999971,17 C2.38807119,17 2.5,16.8880712 2.5,16.75 L2.5,7.25 C2.5,5.59314575 3.84314575,4.25 5.5,4.25 L21.5,4.25 Z" id="Path"></path>
            <path d="M22,6 L6,6 C5.03395859,6.00110216 4.25110216,6.78395859 4.25,7.75 L4.25,19.75 C4.25110216,20.7160414 5.03395859,21.4988978 6,21.5 L22,21.5 C22.9660414,21.4988978 23.7488978,20.7160414 23.75,19.75 L23.75,7.75 C23.7488978,6.78395859 22.9660414,6.00110216 22,6 Z M17.22,14.965 L12.72,17.594 C12.3698382,17.7973339 11.9387233,17.8022675 11.584,17.607 C11.2260196,17.4114037 11.002404,17.0369242 11,16.629 L11,11.371 C11.0020143,10.9637696 11.2243319,10.5895414 11.581,10.393 C11.9365668,10.1978821 12.3683409,10.2031939 12.719,10.407 L17.219,13.036 C17.5634266,13.2350628 17.7755632,13.6026863 17.7755632,14.0005 C17.7755632,14.3983137 17.5634266,14.7659372 17.219,14.965 L17.22,14.965 Z" id="Shape"></path>
        </g>
    </g>
</svg>
